{
  "asset": {
    "version": "2.0",
    "generator": "DrosophilaDrone Quad-X Engine"
  },
  "scene": 0,
  "scenes": [
    {
      "name": "Scene",
      "nodes": [
        0
      ]
    }
  ],
  "nodes": [
    {
      "name": "quad_x_root",
      "children": [
        10,
        11,
        12,
        13,
        14
      ]
    },
    {
      "name": "body_mesh_0",
      "mesh": 0
    },
    {
      "name": "body_mesh_1",
      "mesh": 1
    },
    {
      "name": "body_mesh_3",
      "mesh": 2
    },
    {
      "name": "body_mesh_4",
      "mesh": 3
    },
    {
      "name": "body_mesh_5",
      "mesh": 4
    },
    {
      "name": "body_mesh_6",
      "mesh": 5
    },
    {
      "name": "body_mesh_7",
      "mesh": 6
    },
    {
      "name": "body_mesh_9",
      "mesh": 7
    },
    {
      "name": "heading_arrow",
      "mesh": 8
    },
    {
      "name": "drone_chassis",
      "children": [
        1,
        2,
        3,
        4,
        5,
        6,
        7,
        8,
        9
      ]
    },
    {
      "name": "prop_front_right",
      "translation": [
        2.84905,
        0.45733,
        -1.61349
      ],
      "rotation": [
        0.0,
        0.0,
        0.0,
        1.0
      ],
      "mesh": 10
    },
    {
      "name": "prop_front_left",
      "translation": [
        -2.77596,
        0.46271,
        -1.57663
      ],
      "rotation": [
        0.0,
        0.0,
        0.0,
        1.0
      ],
      "mesh": 9
    },
    {
      "name": "prop_rear_left",
      "translation": [
        -2.46222,
        0.45717,
        2.45253
      ],
      "rotation": [
        0.0,
        0.0,
        0.0,
        1.0
      ],
      "mesh": 11
    },
    {
      "name": "prop_rear_right",
      "translation": [
        2.44971,
        0.48172,
        2.58754
      ],
      "rotation": [
        0.0,
        0.0,
        0.0,
        1.0
      ],
      "mesh": 12
    }
  ],
  "meshes": [
    {
      "name": "body_mesh_0",
      "primitives": [
        {
          "mode": 4,
          "attributes": {
            "POSITION": 0,
            "NORMAL": 1,
            "COLOR_0": 2
          },
          "indices": 3,
          "material": 0
        }
      ]
    },
    {
      "name": "body_mesh_1",
      "primitives": [
        {
          "mode": 4,
          "attributes": {
            "POSITION": 4,
            "NORMAL": 5,
            "COLOR_0": 6
          },
          "indices": 7,
          "material": 1
        }
      ]
    },
    {
      "name": "body_mesh_3",
      "primitives": [
        {
          "mode": 4,
          "attributes": {
            "POSITION": 8,
            "NORMAL": 9,
            "COLOR_0": 10
          },
          "indices": 11,
          "material": 0
        }
      ]
    },
    {
      "name": "body_mesh_4",
      "primitives": [
        {
          "mode": 4,
          "attributes": {
            "POSITION": 12,
            "NORMAL": 13,
            "COLOR_0": 14
          },
          "indices": 15,
          "material": 1
        }
      ]
    },
    {
      "name": "body_mesh_5",
      "primitives": [
        {
          "mode": 4,
          "attributes": {
            "POSITION": 16,
            "NORMAL": 17,
            "COLOR_0": 18
          },
          "indices": 19,
          "material": 3
        }
      ]
    },
    {
      "name": "body_mesh_6",
      "primitives": [
        {
          "mode": 4,
          "attributes": {
            "POSITION": 20,
            "NORMAL": 21,
            "COLOR_0": 22
          },
          "indices": 23,
          "material": 1
        }
      ]
    },
    {
      "name": "body_mesh_7",
      "primitives": [
        {
          "mode": 4,
          "attributes": {
            "POSITION": 24,
            "NORMAL": 25,
            "COLOR_0": 26
          },
          "indices": 27,
          "material": 3
        }
      ]
    },
    {
      "name": "body_mesh_9",
      "primitives": [
        {
          "mode": 4,
          "attributes": {
            "POSITION": 28,
            "NORMAL": 29,
            "COLOR_0": 30
          },
          "indices": 31,
          "material": 0
        }
      ]
    },
    {
      "name": "heading_arrow",
      "primitives": [
        {
          "mode": 4,
          "attributes": {
            "POSITION": 32,
            "NORMAL": 33,
            "COLOR_0": 34
          },
          "indices": 35,
          "material": 4
        }
      ]
    },
    {
      "name": "mesh_prop_fl",
      "primitives": [
        {
          "mode": 4,
          "attributes": {
            "POSITION": 36,
            "NORMAL": 37,
            "COLOR_0": 38
          },
          "indices": 39,
          "material": 4
        }
      ]
    },
    {
      "name": "mesh_prop_fr",
      "primitives": [
        {
          "mode": 4,
          "attributes": {
            "POSITION": 40,
            "NORMAL": 41,
            "COLOR_0": 42
          },
          "indices": 43,
          "material": 4
        }
      ]
    },
    {
      "name": "mesh_prop_rl",
      "primitives": [
        {
          "mode": 4,
          "attributes": {
            "POSITION": 44,
            "NORMAL": 45,
            "COLOR_0": 46
          },
          "indices": 47,
          "material": 2
        }
      ]
    },
    {
      "name": "mesh_prop_rr",
      "primitives": [
        {
          "mode": 4,
          "attributes": {
            "POSITION": 48,
            "NORMAL": 49,
            "COLOR_0": 50
          },
          "indices": 51,
          "material": 2
        }
      ]
    }
  ],
  "materials": [
    {
      "pbrMetallicRoughness": {
        "baseColorFactor": [
          0,
          0.4470588235294118,
          0.6392156862745098,
          1
        ],
        "metallicFactor": 0.5,
        "roughnessFactor": 0.5
      },
      "name": "Material.004"
    },
    {
      "pbrMetallicRoughness": {
        "baseColorFactor": [
          0.4,
          0.4,
          0.4,
          1
        ],
        "metallicFactor": 0.5,
        "roughnessFactor": 0.5
      },
      "name": "Material.003"
    },
    {
      "pbrMetallicRoughness": {
        "baseColorFactor": [
          1,
          0,
          0,
          1
        ],
        "metallicFactor": 0.5,
        "roughnessFactor": 0.5
      },
      "name": "Material.005"
    },
    {
      "pbrMetallicRoughness": {
        "baseColorFactor": [
          0.17647058823529413,
          0.17647058823529413,
          0.17647058823529413,
          1
        ],
        "metallicFactor": 0.5,
        "roughnessFactor": 0.5
      },
      "name": "Material.001"
    },
    {
      "pbrMetallicRoughness": {
        "baseColorFactor": [
          0,
          1,
          0,
          1
        ],
        "metallicFactor": 0.5,
        "roughnessFactor": 0.5
      },
      "name": "Material.002"
    }
  ],
  "accessors": [
    {
      "bufferView": 0,
      "byteOffset": 0,
      "componentType": 5126,
      "count": 209,
      "type": "VEC3",
      "min": [
        2.392016649246216,
        0.037953510880470276,
        -2.0697643756866455
      ],
      "max": [
        3.3012421131134033,
        0.5945042967796326,
        -1.1618714332580566
      ]
    },
    {
      "bufferView": 1,
      "byteOffset": 0,
      "componentType": 5126,
      "count": 209,
      "type": "VEC3",
      "min": [
        -0.9971039295196533,
        -1.0,
        -0.9999685287475586
      ],
      "max": [
        0.9983029365539551,
        1.0,
        0.9924123883247375
      ]
    },
    {
      "bufferView": 2,
      "byteOffset": 0,
      "componentType": 5126,
      "count": 209,
      "type": "VEC3",
      "min": [
        1.0,
        1.0,
        1.0
      ],
      "max": [
        1.0,
        1.0,
        1.0
      ]
    },
    {
      "bufferView": 3,
      "byteOffset": 0,
      "componentType": 5123,
      "count": 966,
      "type": "SCALAR",
      "min": [
        0.0
      ],
      "max": [
        208.0
      ]
    },
    {
      "bufferView": 4,
      "byteOffset": 0,
      "componentType": 5126,
      "count": 174,
      "type": "VEC3",
      "min": [
        0.4492890238761902,
        -0.06688565760850906,
        -2.1447877883911133
      ],
      "max": [
        3.41261625289917,
        0.06774523109197617,
        -0.051494598388671875
      ]
    },
    {
      "bufferView": 5,
      "byteOffset": 0,
      "componentType": 5126,
      "count": 174,
      "type": "VEC3",
      "min": [
        -0.9997074007987976,
        -0.7035466432571411,
        -0.9994716644287109
      ],
      "max": [
        0.9991612434387207,
        0.7035467624664307,
        0.9991612434387207
      ]
    },
    {
      "bufferView": 6,
      "byteOffset": 0,
      "componentType": 5126,
      "count": 174,
      "type": "VEC3",
      "min": [
        1.0,
        1.0,
        1.0
      ],
      "max": [
        1.0,
        1.0,
        1.0
      ]
    },
    {
      "bufferView": 7,
      "byteOffset": 0,
      "componentType": 5123,
      "count": 1032,
      "type": "SCALAR",
      "min": [
        0.0
      ],
      "max": [
        173.0
      ]
    },
    {
      "bufferView": 8,
      "byteOffset": 0,
      "componentType": 5126,
      "count": 209,
      "type": "VEC3",
      "min": [
        -2.920396566390991,
        0.037953123450279236,
        1.9980343580245972
      ],
      "max": [
        -2.0121347904205322,
        0.594457745552063,
        2.907184362411499
      ]
    },
    {
      "bufferView": 9,
      "byteOffset": 0,
      "componentType": 5126,
      "count": 209,
      "type": "VEC3",
      "min": [
        -0.9998720288276672,
        -1.0,
        -0.996367335319519
      ],
      "max": [
        0.9924123287200928,
        1.0,
        0.9987727999687195
      ]
    },
    {
      "bufferView": 10,
      "byteOffset": 0,
      "componentType": 5126,
      "count": 209,
      "type": "VEC3",
      "min": [
        1.0,
        1.0,
        1.0
      ],
      "max": [
        1.0,
        1.0,
        1.0
      ]
    },
    {
      "bufferView": 11,
      "byteOffset": 0,
      "componentType": 5123,
      "count": 966,
      "type": "SCALAR",
      "min": [
        0.0
      ],
      "max": [
        208.0
      ]
    },
    {
      "bufferView": 12,
      "byteOffset": 0,
      "componentType": 5126,
      "count": 348,
      "type": "VEC3",
      "min": [
        -3.373168468475342,
        -0.06688594073057175,
        -2.129274368286133
      ],
      "max": [
        2.973482608795166,
        0.06643403321504593,
        3.14461612701416
      ]
    },
    {
      "bufferView": 13,
      "byteOffset": 0,
      "componentType": 5126,
      "count": 348,
      "type": "VEC3",
      "min": [
        -0.9999685287475586,
        -0.7114896178245544,
        -0.9997074007987976
      ],
      "max": [
        0.9991612434387207,
        0.7114896178245544,
        0.9999685287475586
      ]
    },
    {
      "bufferView": 14,
      "byteOffset": 0,
      "componentType": 5126,
      "count": 348,
      "type": "VEC3",
      "min": [
        1.0,
        1.0,
        1.0
      ],
      "max": [
        1.0,
        1.0,
        1.0
      ]
    },
    {
      "bufferView": 15,
      "byteOffset": 0,
      "componentType": 5123,
      "count": 2064,
      "type": "SCALAR",
      "min": [
        0.0
      ],
      "max": [
        347.0
      ]
    },
    {
      "bufferView": 16,
      "byteOffset": 0,
      "componentType": 5126,
      "count": 1928,
      "type": "VEC3",
      "min": [
        -1.3630635738372803,
        0.07378803193569183,
        -2.724088430404663
      ],
      "max": [
        1.449798822402954,
        0.13761311769485474,
        1.9419810771942139
      ]
    },
    {
      "bufferView": 17,
      "byteOffset": 0,
      "componentType": 5126,
      "count": 1928,
      "type": "VEC3",
      "min": [
        -0.9997074007987976,
        -1.0,
        -0.9999685287475586
      ],
      "max": [
        0.9999685287475586,
        1.0,
        1.0
      ]
    },
    {
      "bufferView": 18,
      "byteOffset": 0,
      "componentType": 5126,
      "count": 1928,
      "type": "VEC3",
      "min": [
        1.0,
        1.0,
        1.0
      ],
      "max": [
        1.0,
        1.0,
        1.0
      ]
    },
    {
      "bufferView": 19,
      "byteOffset": 0,
      "componentType": 5123,
      "count": 5832,
      "type": "SCALAR",
      "min": [
        0.0
      ],
      "max": [
        1927.0
      ]
    },
    {
      "bufferView": 20,
      "byteOffset": 0,
      "componentType": 5126,
      "count": 174,
      "type": "VEC3",
      "min": [
        -3.040536880493164,
        -0.06688593327999115,
        0.4365004897117615
      ],
      "max": [
        -0.47519588470458984,
        0.06773096323013306,
        3.036130666732788
      ]
    },
    {
      "bufferView": 21,
      "byteOffset": 0,
      "componentType": 5126,
      "count": 174,
      "type": "VEC3",
      "min": [
        -0.9998720288276672,
        -0.711105227470398,
        -0.9998720288276672
      ],
      "max": [
        0.9994716644287109,
        0.711105227470398,
        0.9987727999687195
      ]
    },
    {
      "bufferView": 22,
      "byteOffset": 0,
      "componentType": 5126,
      "count": 174,
      "type": "VEC3",
      "min": [
        1.0,
        1.0,
        1.0
      ],
      "max": [
        1.0,
        1.0,
        1.0
      ]
    },
    {
      "bufferView": 23,
      "byteOffset": 0,
      "componentType": 5123,
      "count": 1032,
      "type": "SCALAR",
      "min": [
        0.0
      ],
      "max": [
        173.0
      ]
    },
    {
      "bufferView": 24,
      "byteOffset": 0,
      "componentType": 5126,
      "count": 1928,
      "type": "VEC3",
      "min": [
        -1.3630635738372803,
        -0.13246047496795654,
        -2.724088430404663
      ],
      "max": [
        1.449798822402954,
        -0.06863539665937424,
        1.9419810771942139
      ]
    },
    {
      "bufferView": 25,
      "byteOffset": 0,
      "componentType": 5126,
      "count": 1928,
      "type": "VEC3",
      "min": [
        -0.9997074007987976,
        -1.0,
        -0.9999685287475586
      ],
      "max": [
        0.9999685287475586,
        1.0,
        1.0
      ]
    },
    {
      "bufferView": 26,
      "byteOffset": 0,
      "componentType": 5126,
      "count": 1928,
      "type": "VEC3",
      "min": [
        1.0,
        1.0,
        1.0
      ],
      "max": [
        1.0,
        1.0,
        1.0
      ]
    },
    {
      "bufferView": 27,
      "byteOffset": 0,
      "componentType": 5123,
      "count": 5832,
      "type": "SCALAR",
      "min": [
        0.0
      ],
      "max": [
        1927.0
      ]
    },
    {
      "bufferView": 28,
      "byteOffset": 0,
      "componentType": 5126,
      "count": 418,
      "type": "VEC3",
      "min": [
        -3.2272841930389404,
        0.03795310854911804,
        -2.0272951126098633
      ],
      "max": [
        2.906769037246704,
        0.5953218936920166,
        3.04595947265625
      ]
    },
    {
      "bufferView": 29,
      "byteOffset": 0,
      "componentType": 5126,
      "count": 418,
      "type": "VEC3",
      "min": [
        -0.9987727999687195,
        -1.0,
        -0.9999685287475586
      ],
      "max": [
        0.9971039295196533,
        1.0,
        0.9935607314109802
      ]
    },
    {
      "bufferView": 30,
      "byteOffset": 0,
      "componentType": 5126,
      "count": 418,
      "type": "VEC3",
      "min": [
        1.0,
        1.0,
        1.0
      ],
      "max": [
        1.0,
        1.0,
        1.0
      ]
    },
    {
      "bufferView": 31,
      "byteOffset": 0,
      "componentType": 5123,
      "count": 1932,
      "type": "SCALAR",
      "min": [
        0.0
      ],
      "max": [
        417.0
      ]
    },
    {
      "bufferView": 32,
      "byteOffset": 0,
      "componentType": 5126,
      "count": 3272,
      "type": "VEC3",
      "min": [
        -0.5348114967346191,
        0.12904092669487,
        -2.6026833057403564
      ],
      "max": [
        0.6130948066711426,
        0.15181684494018555,
        -0.7510013580322266
      ]
    },
    {
      "bufferView": 33,
      "byteOffset": 0,
      "componentType": 5126,
      "count": 3272,
      "type": "VEC3",
      "min": [
        -0.9955339431762695,
        -1.0,
        -1.0
      ],
      "max": [
        0.9955339431762695,
        1.0,
        1.0
      ]
    },
    {
      "bufferView": 34,
      "byteOffset": 0,
      "componentType": 5126,
      "count": 3272,
      "type": "VEC3",
      "min": [
        1.0,
        1.0,
        1.0
      ],
      "max": [
        1.0,
        1.0,
        1.0
      ]
    },
    {
      "bufferView": 35,
      "byteOffset": 0,
      "componentType": 5123,
      "count": 6508,
      "type": "SCALAR",
      "min": [
        0.0,
        0.0,
        5.0
      ],
      "max": [
        3269.0,
        3270.0,
        3271.0
      ]
    },
    {
      "bufferView": 36,
      "byteOffset": 0,
      "componentType": 5126,
      "count": 325,
      "type": "VEC3",
      "min": [
        -1.2731738090515137,
        -0.09679761528968811,
        -1.6728909015655518
      ],
      "max": [
        1.2731735706329346,
        0.0967976450920105,
        1.6728909015655518
      ]
    },
    {
      "bufferView": 37,
      "byteOffset": 0,
      "componentType": 5126,
      "count": 325,
      "type": "VEC3",
      "min": [
        -0.9783064126968384,
        -0.9972139000892639,
        -0.8399664163589478
      ],
      "max": [
        0.9783064126968384,
        0.99942946434021,
        0.8363614082336426
      ]
    },
    {
      "bufferView": 38,
      "byteOffset": 0,
      "componentType": 5126,
      "count": 325,
      "type": "VEC3",
      "min": [
        1.0,
        1.0,
        1.0
      ],
      "max": [
        1.0,
        1.0,
        1.0
      ]
    },
    {
      "bufferView": 39,
      "byteOffset": 0,
      "componentType": 5123,
      "count": 650,
      "type": "SCALAR",
      "min": [
        0.0,
        0.0,
        2.0
      ],
      "max": [
        323.0,
        324.0,
        324.0
      ]
    },
    {
      "bufferView": 40,
      "byteOffset": 0,
      "componentType": 5126,
      "count": 325,
      "type": "VEC3",
      "min": [
        -1.3244352340698242,
        -0.0958000123500824,
        -1.6341886520385742
      ],
      "max": [
        1.3244352340698242,
        0.09580004215240479,
        1.6341886520385742
      ]
    },
    {
      "bufferView": 41,
      "byteOffset": 0,
      "componentType": 5126,
      "count": 325,
      "type": "VEC3",
      "min": [
        -0.970660388469696,
        -0.9993176460266113,
        -0.8374993801116943
      ],
      "max": [
        0.970660388469696,
        0.9972139596939087,
        0.8413716554641724
      ]
    },
    {
      "bufferView": 42,
      "byteOffset": 0,
      "componentType": 5126,
      "count": 325,
      "type": "VEC3",
      "min": [
        1.0,
        1.0,
        1.0
      ],
      "max": [
        1.0,
        1.0,
        1.0
      ]
    },
    {
      "bufferView": 43,
      "byteOffset": 0,
      "componentType": 5123,
      "count": 1950,
      "type": "SCALAR",
      "min": [
        0.0
      ],
      "max": [
        324.0
      ]
    },
    {
      "bufferView": 44,
      "byteOffset": 0,
      "componentType": 5126,
      "count": 325,
      "type": "VEC3",
      "min": [
        -1.584223747253418,
        -0.09596666693687439,
        -1.3930646181106567
      ],
      "max": [
        1.584223985671997,
        0.09596666693687439,
        1.3930644989013672
      ]
    },
    {
      "bufferView": 45,
      "byteOffset": 0,
      "componentType": 5126,
      "count": 325,
      "type": "VEC3",
      "min": [
        -0.9231840968132019,
        -0.9993857741355896,
        -0.8984600305557251
      ],
      "max": [
        0.9124590754508972,
        0.9969891309738159,
        0.9079221487045288
      ]
    },
    {
      "bufferView": 46,
      "byteOffset": 0,
      "componentType": 5126,
      "count": 325,
      "type": "VEC3",
      "min": [
        1.0,
        1.0,
        1.0
      ],
      "max": [
        1.0,
        1.0,
        1.0
      ]
    },
    {
      "bufferView": 47,
      "byteOffset": 0,
      "componentType": 5123,
      "count": 1950,
      "type": "SCALAR",
      "min": [
        0.0
      ],
      "max": [
        324.0
      ]
    },
    {
      "bufferView": 48,
      "byteOffset": 0,
      "componentType": 5126,
      "count": 325,
      "type": "VEC3",
      "min": [
        -1.6517486572265625,
        -0.09602251648902893,
        -1.3128457069396973
      ],
      "max": [
        1.6517486572265625,
        0.09602251648902893,
        1.3128457069396973
      ]
    },
    {
      "bufferView": 49,
      "byteOffset": 0,
      "componentType": 5126,
      "count": 325,
      "type": "VEC3",
      "min": [
        -0.9248908162117004,
        -0.9969890713691711,
        -0.9301238059997559
      ],
      "max": [
        0.8878656029701233,
        0.9993857741355896,
        0.9216302037239075
      ]
    },
    {
      "bufferView": 50,
      "byteOffset": 0,
      "componentType": 5126,
      "count": 325,
      "type": "VEC3",
      "min": [
        1.0,
        1.0,
        1.0
      ],
      "max": [
        1.0,
        1.0,
        1.0
      ]
    },
    {
      "bufferView": 51,
      "byteOffset": 0,
      "componentType": 5123,
      "count": 1950,
      "type": "SCALAR",
      "min": [
        0.0
      ],
      "max": [
        324.0
      ]
    }
  ],
  "bufferViews": [
    {
      "buffer": 0,
      "byteOffset": 0,
      "byteLength": 2508,
      "target": 34962
    },
    {
      "buffer": 0,
      "byteOffset": 2508,
      "byteLength": 2508,
      "target": 34962
    },
    {
      "buffer": 0,
      "byteOffset": 5016,
      "byteLength": 2508,
      "target": 34962
    },
    {
      "buffer": 0,
      "byteOffset": 7524,
      "byteLength": 1932,
      "target": 34963
    },
    {
      "buffer": 0,
      "byteOffset": 9456,
      "byteLength": 2088,
      "target": 34962
    },
    {
      "buffer": 0,
      "byteOffset": 11544,
      "byteLength": 2088,
      "target": 34962
    },
    {
      "buffer": 0,
      "byteOffset": 13632,
      "byteLength": 2088,
      "target": 34962
    },
    {
      "buffer": 0,
      "byteOffset": 15720,
      "byteLength": 2064,
      "target": 34963
    },
    {
      "buffer": 0,
      "byteOffset": 17784,
      "byteLength": 2508,
      "target": 34962
    },
    {
      "buffer": 0,
      "byteOffset": 20292,
      "byteLength": 2508,
      "target": 34962
    },
    {
      "buffer": 0,
      "byteOffset": 22800,
      "byteLength": 2508,
      "target": 34962
    },
    {
      "buffer": 0,
      "byteOffset": 25308,
      "byteLength": 1932,
      "target": 34963
    },
    {
      "buffer": 0,
      "byteOffset": 27240,
      "byteLength": 4176,
      "target": 34962
    },
    {
      "buffer": 0,
      "byteOffset": 31416,
      "byteLength": 4176,
      "target": 34962
    },
    {
      "buffer": 0,
      "byteOffset": 35592,
      "byteLength": 4176,
      "target": 34962
    },
    {
      "buffer": 0,
      "byteOffset": 39768,
      "byteLength": 4128,
      "target": 34963
    },
    {
      "buffer": 0,
      "byteOffset": 43896,
      "byteLength": 23136,
      "target": 34962
    },
    {
      "buffer": 0,
      "byteOffset": 67032,
      "byteLength": 23136,
      "target": 34962
    },
    {
      "buffer": 0,
      "byteOffset": 90168,
      "byteLength": 23136,
      "target": 34962
    },
    {
      "buffer": 0,
      "byteOffset": 113304,
      "byteLength": 11664,
      "target": 34963
    },
    {
      "buffer": 0,
      "byteOffset": 124968,
      "byteLength": 2088,
      "target": 34962
    },
    {
      "buffer": 0,
      "byteOffset": 127056,
      "byteLength": 2088,
      "target": 34962
    },
    {
      "buffer": 0,
      "byteOffset": 129144,
      "byteLength": 2088,
      "target": 34962
    },
    {
      "buffer": 0,
      "byteOffset": 131232,
      "byteLength": 2064,
      "target": 34963
    },
    {
      "buffer": 0,
      "byteOffset": 133296,
      "byteLength": 23136,
      "target": 34962
    },
    {
      "buffer": 0,
      "byteOffset": 156432,
      "byteLength": 23136,
      "target": 34962
    },
    {
      "buffer": 0,
      "byteOffset": 179568,
      "byteLength": 23136,
      "target": 34962
    },
    {
      "buffer": 0,
      "byteOffset": 202704,
      "byteLength": 11664,
      "target": 34963
    },
    {
      "buffer": 0,
      "byteOffset": 214368,
      "byteLength": 5016,
      "target": 34962
    },
    {
      "buffer": 0,
      "byteOffset": 219384,
      "byteLength": 5016,
      "target": 34962
    },
    {
      "buffer": 0,
      "byteOffset": 224400,
      "byteLength": 5016,
      "target": 34962
    },
    {
      "buffer": 0,
      "byteOffset": 229416,
      "byteLength": 3864,
      "target": 34963
    },
    {
      "buffer": 0,
      "byteOffset": 233280,
      "byteLength": 39264,
      "target": 34962
    },
    {
      "buffer": 0,
      "byteOffset": 272544,
      "byteLength": 39264,
      "target": 34962
    },
    {
      "buffer": 0,
      "byteOffset": 311808,
      "byteLength": 39264,
      "target": 34962
    },
    {
      "buffer": 0,
      "byteOffset": 351072,
      "byteLength": 39048,
      "target": 34963
    },
    {
      "buffer": 0,
      "byteOffset": 390120,
      "byteLength": 3900,
      "target": 34962
    },
    {
      "buffer": 0,
      "byteOffset": 394020,
      "byteLength": 3900,
      "target": 34962
    },
    {
      "buffer": 0,
      "byteOffset": 397920,
      "byteLength": 3900,
      "target": 34962
    },
    {
      "buffer": 0,
      "byteOffset": 401820,
      "byteLength": 3900,
      "target": 34963
    },
    {
      "buffer": 0,
      "byteOffset": 405720,
      "byteLength": 3900,
      "target": 34962
    },
    {
      "buffer": 0,
      "byteOffset": 409620,
      "byteLength": 3900,
      "target": 34962
    },
    {
      "buffer": 0,
      "byteOffset": 413520,
      "byteLength": 3900,
      "target": 34962
    },
    {
      "buffer": 0,
      "byteOffset": 417420,
      "byteLength": 3900,
      "target": 34963
    },
    {
      "buffer": 0,
      "byteOffset": 421320,
      "byteLength": 3900,
      "target": 34962
    },
    {
      "buffer": 0,
      "byteOffset": 425220,
      "byteLength": 3900,
      "target": 34962
    },
    {
      "buffer": 0,
      "byteOffset": 429120,
      "byteLength": 3900,
      "target": 34962
    },
    {
      "buffer": 0,
      "byteOffset": 433020,
      "byteLength": 3900,
      "target": 34963
    },
    {
      "buffer": 0,
      "byteOffset": 436920,
      "byteLength": 3900,
      "target": 34962
    },
    {
      "buffer": 0,
      "byteOffset": 440820,
      "byteLength": 3900,
      "target": 34962
    },
    {
      "buffer": 0,
      "byteOffset": 444720,
      "byteLength": 3900,
      "target": 34962
    },
    {
      "buffer": 0,
      "byteOffset": 448620,
      "byteLength": 3900,
      "target": 34963
    }
  ],
  "buffers": [
    {
      "byteLength": 452520,
      "uri": "data:application/octet-stream;base64,"
    }
  ]
}